<svg xmlns="http://www.w3.org/2000/svg" width="1024" height="1024" viewBox="0 0 1024 1024">
  <path d="M 1012,1023 Z" fill="black"/>
  <path d="M 993,1023 L 994,1023 Z" fill="black"/>
  <path d="M 990,1023 Z" fill="black"/>
  <path d="M 986,1023 Z" fill="black"/>
  <path d="M 984,1023 Z" fill="black"/>
  <path d="M 966,1023 Z" fill="black"/>
  <path d="M 953,1023 Z" fill="black"/>
  <path d="M 942,1023 Z" fill="black"/>
  <path d="M 934,1023 L 935,1023 Z" fill="black"/>
  <path d="M 929,1023 Z" fill="black"/>
  <path d="M 912,1023 Z" fill="black"/>
  <path d="M 46,1023 Z" fill="black"/>
  <path d="M 23,1023 L 24,1023 Z" fill="black"/>
  <path d="M 1014,1022 L 1015,1023 Z" fill="black"/>
  <path d="M 1004,1022 Z" fill="black"/>
  <path d="M 997,1022 L 998,1023 L 998,1022 Z" fill="black"/>
  <path d="M 961,1022 L 961,1023 Z" fill="black"/>
  <path d="M 958,1022 L 958,1023 Z" fill="black"/>
  <path d="M 956,1022 L 955,1023 L 956,1023 Z" fill="black"/>
  <path d="M 948,1022 Z" fill="black"/>
  <path d="M 932,1022 Z" fill="black"/>
  <path d="M 27,1022 L 28,1023 L 28,1022 Z" fill="black"/>
  <path d="M 1006,1021 Z" fill="black"/>
  <path d="M 990,1021 L 991,1021 Z" fill="black"/>
  <path d="M 988,1021 L 988,1022 Z" fill="black"/>
  <path d="M 985,1021 Z" fill="black"/>
  <path d="M 979,1021 Z" fill="black"/>
  <path d="M 972,1021 L 973,1022 L 974,1021 Z" fill="black"/>
  <path d="M 968,1021 L 969,1022 Z" fill="black"/>
  <path d="M 935,1021 Z" fill="black"/>
  <path d="M 993,1020 L 994,1021 Z" fill="black"/>
  <path d="M 950,1020 L 951,1021 L 950,1022 L 951,1021 Z" fill="black"/>
  <path d="M 931,1020 L 930,1021 Z" fill="black"/>
  <path d="M 1007,1019 Z" fill="black"/>
  <path d="M 998,1019 Z" fill="black"/>
  <path d="M 986,1019 L 987,1019 Z" fill="black"/>
  <path d="M 982,1019 Z" fill="black"/>
  <path d="M 979,1019 Z" fill="black"/>
  <path d="M 967,1019 L 966,1020 L 965,1020 L 966,1020 Z" fill="black"/>
  <path d="M 955,1019 L 955,1020 Z" fill="black"/>
  <path d="M 927,1018 Z" fill="black"/>
  <path d="M 1019,1017 Z" fill="black"/>
  <path d="M 1007,1017 Z" fill="black"/>
  <path d="M 999,1017 L 1000,1017 Z" fill="black"/>
  <path d="M 994,1017 L 993,1018 L 994,1017 L 995,1017 Z" fill="black"/>
  <path d="M 987,1017 Z" fill="black"/>
  <path d="M 981,1017 Z" fill="black"/>
  <path d="M 979,1017 Z" fill="black"/>
  <path d="M 941,1017 Z" fill="black"/>
  <path d="M 968,1016 L 968,1017 L 970,1019 L 970,1020 L 970,1019 L 971,1018 L 970,1019 L 968,1017 Z" fill="black"/>
  <path d="M 933,1016 Z" fill="black"/>
  <path d="M 992,1015 L 991,1016 Z" fill="black"/>
  <path d="M 983,1015 L 984,1015 L 985,1016 L 985,1015 Z" fill="black"/>
  <path d="M 981,1015 Z" fill="black"/>
  <path d="M 976,1015 L 976,1016 L 974,1018 L 975,1018 L 976,1017 Z" fill="black"/>
  <path d="M 972,1015 L 973,1016 Z" fill="black"/>
  <path d="M 966,1015 Z" fill="black"/>
  <path d="M 958,1015 L 957,1016 L 959,1018 L 959,1020 L 959,1018 L 957,1016 Z" fill="black"/>
  <path d="M 1003,1014 Z" fill="black"/>
  <path d="M 978,1014 L 978,1015 Z" fill="black"/>
  <path d="M 964,1014 Z" fill="black"/>
  <path d="M 948,1014 Z" fill="black"/>
  <path d="M 1008,1013 L 1009,1014 L 1009,1015 L 1009,1014 Z" fill="black"/>
  <path d="M 982,1013 Z" fill="black"/>
  <path d="M 953,1013 L 953,1014 L 952,1015 L 952,1016 L 951,1017 L 950,1016 L 951,1017 L 951,1018 L 952,1018 L 953,1017 L 952,1016 L 952,1015 L 953,1014 Z" fill="black"/>
  <path d="M 951,1013 Z" fill="black"/>
  <path d="M 946,1013 Z" fill="black"/>
  <path d="M 937,1013 L 937,1014 L 936,1015 L 936,1018 L 935,1019 L 934,1018 L 932,1018 L 931,1017 L 931,1018 L 934,1018 L 935,1019 L 936,1019 L 938,1021 L 937,1020 L 938,1019 L 939,1019 L 940,1020 L 940,1022 L 939,1023 L 940,1023 L 940,1022 L 941,1021 L 942,1021 L 943,1020 L 944,1020 L 945,1021 L 944,1022 L 944,1023 L 945,1022 L 945,1021 L 944,1020 L 943,1020 L 942,1021 L 941,1020 L 940,1020 L 939,1019 L 939,1016 L 937,1016 L 936,1015 L 937,1014 Z" fill="black"/>
  <path d="M 1017,1012 Z" fill="black"/>
  <path d="M 1003,1012 Z" fill="black"/>
  <path d="M 994,1012 Z" fill="black"/>
  <path d="M 992,1012 Z" fill="black"/>
  <path d="M 976,1012 L 976,1013 Z" fill="black"/>
  <path d="M 948,1012 Z" fill="black"/>
  <path d="M 939,1012 Z" fill="black"/>
  <path d="M 1006,1011 L 1005,1012 Z" fill="black"/>
  <path d="M 985,1011 Z" fill="black"/>
  <path d="M 971,1011 L 971,1012 L 969,1014 L 971,1012 L 972,1013 L 971,1012 Z" fill="black"/>
  <path d="M 965,1011 Z" fill="black"/>
  <path d="M 963,1011 Z" fill="black"/>
  <path d="M 961,1011 L 961,1012 L 960,1013 L 958,1013 L 960,1013 L 962,1015 L 962,1016 L 961,1017 L 962,1018 L 962,1015 L 961,1014 Z" fill="black"/>
  <path d="M 998,1010 Z" fill="black"/>
  <path d="M 987,1010 Z" fill="black"/>
  <path d="M 983,1010 Z" fill="black"/>
  <path d="M 974,1010 L 974,1011 L 975,1010 Z" fill="black"/>
  <path d="M 958,1010 L 958,1011 L 959,1010 Z" fill="black"/>
  <path d="M 1015,1009 Z" fill="black"/>
  <path d="M 993,1009 L 993,1010 L 994,1009 L 995,1010 L 994,1009 Z" fill="black"/>
  <path d="M 991,1009 L 989,1011 L 989,1012 L 988,1013 L 989,1012 L 989,1011 Z" fill="black"/>
  <path d="M 980,1008 L 979,1009 L 977,1009 L 979,1009 Z" fill="black"/>
  <path d="M 1019,1007 Z" fill="black"/>
  <path d="M 1016,1007 L 1017,1008 L 1017,1007 Z" fill="black"/>
  <path d="M 990,1007 L 991,1007 Z" fill="black"/>
  <path d="M 983,1007 Z" fill="black"/>
  <path d="M 973,1007 L 972,1008 L 973,1007 L 974,1007 Z" fill="black"/>
  <path d="M 967,1007 L 966,1008 L 967,1009 L 968,1008 L 969,1008 L 969,1007 L 968,1008 Z" fill="black"/>
  <path d="M 1014,1006 Z" fill="black"/>
  <path d="M 1011,1006 L 1012,1006 Z" fill="black"/>
  <path d="M 988,1006 Z" fill="black"/>
  <path d="M 980,1006 Z" fill="black"/>
  <path d="M 956,1006 Z" fill="black"/>
  <path d="M 1006,1005 L 1005,1006 Z" fill="black"/>
  <path d="M 1002,1005 Z" fill="black"/>
  <path d="M 990,1005 Z" fill="black"/>
  <path d="M 976,1005 L 977,1006 Z" fill="black"/>
  <path d="M 996,1004 L 997,1004 Z" fill="black"/>
  <path d="M 985,1004 L 984,1005 L 985,1006 L 985,1007 L 986,1007 L 986,1005 Z" fill="black"/>
  <path d="M 982,1004 L 982,1005 Z" fill="black"/>
  <path d="M 970,1004 L 970,1005 L 971,1005 Z" fill="black"/>
  <path d="M 968,1004 Z" fill="black"/>
  <path d="M 965,1004 L 965,1006 Z" fill="black"/>
  <path d="M 958,1004 L 959,1005 L 958,1006 L 958,1007 L 959,1008 L 960,1008 L 961,1007 L 962,1008 L 961,1007 L 962,1006 L 960,1008 L 958,1006 L 959,1005 L 960,1005 L 959,1005 Z" fill="black"/>
  <path d="M 955,1004 Z" fill="black"/>
  <path d="M 1015,1003 Z" fill="black"/>
  <path d="M 1011,1003 L 1011,1004 Z" fill="black"/>
  <path d="M 1019,1002 Z" fill="black"/>
  <path d="M 974,1002 Z" fill="black"/>
  <path d="M 968,1002 Z" fill="black"/>
  <path d="M 965,1002 Z" fill="black"/>
  <path d="M 1000,1001 L 1001,1001 Z" fill="black"/>
  <path d="M 994,1001 L 996,1001 Z" fill="black"/>
  <path d="M 991,1001 L 990,1002 L 991,1001 L 992,1001 Z" fill="black"/>
  <path d="M 987,1001 L 986,1002 L 988,1004 L 986,1002 Z" fill="black"/>
  <path d="M 983,1001 L 984,1002 Z" fill="black"/>
  <path d="M 979,1001 Z" fill="black"/>
  <path d="M 963,1001 Z" fill="black"/>
  <path d="M 947,1001 L 947,1002 Z" fill="black"/>
  <path d="M 1011,1000 L 1011,1001 Z" fill="black"/>
  <path d="M 1017,999 Z" fill="black"/>
  <path d="M 984,999 Z" fill="black"/>
  <path d="M 970,999 Z" fill="black"/>
  <path d="M 965,999 L 968,999 Z" fill="black"/>
  <path d="M 1023,998 Z" fill="black"/>
  <path d="M 1015,998 L 1014,999 Z" fill="black"/>
  <path d="M 1001,998 L 1001,999 L 1002,999 L 1003,1000 L 1003,1002 L 1003,1000 Z" fill="black"/>
  <path d="M 975,998 L 974,999 L 974,1000 L 974,999 Z" fill="black"/>
  <path d="M 1018,997 L 1019,998 L 1019,999 L 1019,998 Z" fill="black"/>
  <path d="M 1007,997 Z" fill="black"/>
  <path d="M 999,997 Z" fill="black"/>
  <path d="M 996,997 Z" fill="black"/>
  <path d="M 982,997 L 981,998 Z" fill="black"/>
  <path d="M 968,997 Z" fill="black"/>
  <path d="M 966,997 Z" fill="black"/>
  <path d="M 964,997 Z" fill="black"/>
  <path d="M 987,996 L 987,998 L 989,998 L 990,999 L 989,998 L 989,997 L 990,996 L 989,997 L 988,997 Z" fill="black"/>
  <path d="M 949,996 L 949,998 L 950,999 L 950,1000 L 950,997 Z" fill="black"/>
  <path d="M 1019,995 Z" fill="black"/>
  <path d="M 1013,995 Z" fill="black"/>
  <path d="M 997,995 Z" fill="black"/>
  <path d="M 995,995 Z" fill="black"/>
  <path d="M 993,995 Z" fill="black"/>
  <path d="M 980,995 L 978,997 L 978,998 L 977,999 L 978,998 L 979,998 L 979,996 Z" fill="black"/>
  <path d="M 957,995 L 957,996 L 958,997 L 957,998 L 956,998 L 955,997 L 954,997 L 953,996 L 952,997 L 953,998 L 952,999 L 953,999 L 954,1000 L 954,1001 L 953,1002 L 952,1002 L 951,1003 L 952,1002 L 953,1002 L 954,1001 L 954,999 L 955,998 L 957,998 L 958,999 L 958,1000 L 959,999 L 960,1000 L 960,1002 L 961,1001 L 961,1000 L 960,1000 L 959,999 L 958,999 L 957,998 L 959,996 L 961,998 L 961,997 L 960,997 L 959,996 L 958,997 L 957,996 Z" fill="black"/>
  <path d="M 1023,993 Z" fill="black"/>
  <path d="M 1019,993 Z" fill="black"/>
  <path d="M 1011,993 Z" fill="black"/>
  <path d="M 985,993 Z" fill="black"/>
  <path d="M 978,993 L 979,993 Z" fill="black"/>
  <path d="M 1013,992 Z" fill="black"/>
  <path d="M 1008,992 L 1007,993 Z" fill="black"/>
  <path d="M 1000,992 L 999,993 Z" fill="black"/>
  <path d="M 992,992 L 991,993 Z" fill="black"/>
  <path d="M 989,992 L 989,993 Z" fill="black"/>
  <path d="M 982,992 L 981,993 L 984,996 L 984,997 L 985,997 L 981,993 Z" fill="black"/>
  <path d="M 1011,991 Z" fill="black"/>
  <path d="M 1001,988 L 1002,989 L 1001,990 L 1002,989 Z" fill="black"/>
  <path d="M 1023,987 L 1022,988 L 1020,988 L 1020,989 L 1019,990 L 1018,989 L 1016,989 L 1018,991 L 1019,990 L 1020,990 Z" fill="black"/>
  <path d="M 1011,987 L 1011,988 Z" fill="black"/>
  <path d="M 987,987 Z" fill="black"/>
  <path d="M 1021,985 Z" fill="black"/>
  <path d="M 1019,985 L 1018,986 L 1016,986 L 1015,987 L 1014,987 L 1015,987 L 1016,986 L 1019,986 Z" fill="black"/>
  <path d="M 1011,985 Z" fill="black"/>
  <path d="M 987,985 Z" fill="black"/>
  <path d="M 979,985 Z" fill="black"/>
  <path d="M 1019,983 Z" fill="black"/>
  <path d="M 1017,982 Z" fill="black"/>
  <path d="M 1003,982 L 1004,982 Z" fill="black"/>
  <path d="M 1006,981 L 1008,983 L 1007,984 L 1007,985 L 1005,987 L 1003,985 L 1005,987 L 1005,988 L 1004,989 L 1004,990 L 1003,991 L 1004,991 L 1005,992 L 1006,991 L 1005,992 L 1004,991 L 1004,990 L 1005,989 L 1005,987 L 1006,986 L 1007,986 L 1008,987 L 1007,988 L 1007,989 L 1009,989 L 1009,987 L 1007,985 L 1007,984 L 1009,982 L 1010,983 L 1008,981 Z" fill="black"/>
  <path d="M 1011,979 L 1011,981 L 1012,982 L 1012,983 L 1015,983 L 1016,984 L 1017,984 L 1016,984 L 1015,983 L 1015,981 L 1013,983 L 1012,982 L 1012,981 L 1011,980 Z" fill="black"/>
  <path d="M 1021,978 L 1022,978 Z" fill="black"/>
  <path d="M 1019,967 L 1019,968 L 1018,969 L 1019,970 L 1019,969 L 1020,968 L 1022,970 L 1023,969 L 1022,968 L 1021,968 L 1020,967 Z" fill="black"/>
  <path d="M 10,84 Z" fill="black"/>
  <path d="M 37,82 Z" fill="black"/>
  <path d="M 1018,81 L 1019,82 Z" fill="black"/>
  <path d="M 1022,78 L 1022,79 L 1023,80 L 1022,79 Z" fill="black"/>
  <path d="M 32,78 Z" fill="black"/>
  <path d="M 14,78 L 15,79 Z" fill="black"/>
  <path d="M 4,78 L 4,79 L 5,80 L 6,80 L 5,80 L 4,79 Z" fill="black"/>
  <path d="M 1,78 L 1,79 L 0,80 L 1,81 L 1,82 L 0,83 L 0,84 L 1,84 L 2,85 L 0,87 L 2,85 L 1,84 L 3,82 L 3,81 L 3,82 L 2,83 L 1,82 L 1,81 L 0,80 L 1,79 L 2,79 Z" fill="black"/>
  <path d="M 34,77 Z" fill="black"/>
  <path d="M 5,76 Z" fill="black"/>
  <path d="M 3,76 Z" fill="black"/>
  <path d="M 0,76 Z" fill="black"/>
  <path d="M 33,75 Z" fill="black"/>
  <path d="M 22,74 L 23,74 Z" fill="black"/>
  <path d="M 6,74 Z" fill="black"/>
  <path d="M 1022,73 L 1022,74 L 1020,76 L 1022,74 L 1023,75 L 1022,74 L 1023,73 Z" fill="black"/>
  <path d="M 3,73 L 4,73 Z" fill="black"/>
  <path d="M 22,72 Z" fill="black"/>
  <path d="M 20,72 L 19,73 Z" fill="black"/>
  <path d="M 8,71 L 8,72 Z" fill="black"/>
  <path d="M 1020,70 L 1020,71 L 1019,72 L 1019,73 L 1022,70 L 1023,71 L 1022,70 L 1021,71 Z" fill="black"/>
  <path d="M 13,70 L 11,72 L 10,71 L 11,72 L 10,73 L 11,74 L 8,77 L 9,78 L 9,79 L 8,80 L 9,80 L 9,79 L 11,77 L 12,78 L 12,79 L 11,80 L 11,82 L 12,82 L 14,84 L 11,87 L 10,86 L 10,87 L 13,87 L 14,86 L 15,87 L 20,87 L 18,87 L 17,86 L 18,85 L 18,84 L 19,83 L 18,84 L 18,85 L 16,87 L 15,86 L 15,83 L 14,82 L 13,83 L 11,81 L 11,80 L 12,79 L 12,78 L 11,77 L 12,76 L 11,75 L 11,74 L 12,73 L 13,73 L 14,74 L 14,75 L 15,76 L 14,75 L 14,74 L 13,73 L 12,73 L 11,72 Z" fill="black"/>
  <path d="M 15,69 L 15,70 L 16,71 L 15,72 L 16,73 L 16,74 L 17,75 L 18,75 L 17,75 L 16,74 L 16,73 L 15,72 L 16,71 L 17,71 L 16,71 L 15,70 Z" fill="black"/>
  <path d="M 20,68 L 21,69 L 20,70 L 21,69 L 22,70 L 21,69 L 22,68 L 21,69 Z" fill="black"/>
  <path d="M 17,67 L 17,68 Z" fill="black"/>
  <path d="M 6,67 L 4,69 L 4,70 L 5,70 L 6,71 L 5,70 L 5,68 Z" fill="black"/>
  <path d="M 37,66 Z" fill="black"/>
  <path d="M 18,65 L 19,66 L 21,66 L 20,66 L 19,65 Z" fill="black"/>
  <path d="M 15,65 L 14,66 L 13,66 L 14,67 L 15,67 L 14,66 Z" fill="black"/>
  <path d="M 11,65 L 11,66 L 10,67 L 9,66 L 8,67 L 8,69 L 9,69 L 8,68 L 8,67 L 9,66 L 11,68 L 11,69 L 12,68 L 11,68 L 10,67 L 11,66 Z" fill="black"/>
  <path d="M 9,64 Z" fill="black"/>
  <path d="M 2,63 L 0,65 L 0,66 L 1,67 L 1,68 L 0,69 L 1,70 L 1,71 L 0,72 L 0,73 L 1,73 L 0,72 L 1,71 L 2,71 L 2,70 L 1,70 L 0,69 L 1,68 L 2,68 L 1,67 L 1,64 Z" fill="black"/>
  <path d="M 9,62 Z" fill="black"/>
  <path d="M 4,62 L 5,63 L 5,65 L 5,63 L 6,62 L 7,62 L 6,62 L 5,63 Z" fill="black"/>
  <path d="M 50,61 L 51,62 L 52,62 L 51,62 Z" fill="black"/>
  <path d="M 18,61 L 16,63 L 17,62 L 18,63 L 17,62 Z" fill="black"/>
  <path d="M 14,61 L 13,62 L 11,62 L 14,62 Z" fill="black"/>
  <path d="M 0,60 L 1,61 L 1,60 Z" fill="black"/>
  <path d="M 27,59 Z" fill="black"/>
  <path d="M 14,59 Z" fill="black"/>
  <path d="M 11,59 L 11,60 Z" fill="black"/>
  <path d="M 6,59 L 5,60 L 6,59 L 7,60 L 7,59 Z" fill="black"/>
  <path d="M 54,57 L 54,58 Z" fill="black"/>
  <path d="M 39,57 L 40,57 Z" fill="black"/>
  <path d="M 14,57 Z" fill="black"/>
  <path d="M 8,57 Z" fill="black"/>
  <path d="M 6,56 Z" fill="black"/>
  <path d="M 2,56 L 3,57 L 2,58 L 3,57 Z" fill="black"/>
  <path d="M 0,56 L 0,57 Z" fill="black"/>
  <path d="M 1022,55 L 1023,56 L 1023,55 Z" fill="black"/>
  <path d="M 10,55 L 11,56 L 10,57 L 11,57 L 11,56 Z" fill="black"/>
  <path d="M 28,54 Z" fill="black"/>
  <path d="M 4,54 L 4,55 Z" fill="black"/>
  <path d="M 12,53 L 12,54 Z" fill="black"/>
  <path d="M 7,53 L 7,54 L 8,55 L 7,54 Z" fill="black"/>
  <path d="M 0,53 L 1,54 L 2,54 L 2,53 L 1,54 Z" fill="black"/>
  <path d="M 29,52 L 30,52 L 31,53 L 33,53 L 34,52 L 36,52 L 33,52 L 32,53 L 31,53 L 30,52 Z" fill="black"/>
  <path d="M 16,52 L 15,53 L 14,53 L 14,54 L 17,57 L 16,58 L 17,59 L 18,59 L 19,58 L 19,56 L 16,53 L 17,52 Z" fill="black"/>
  <path d="M 9,52 L 10,53 Z" fill="black"/>
  <path d="M 13,51 L 14,51 Z" fill="black"/>
  <path d="M 11,51 Z" fill="black"/>
  <path d="M 2,51 L 4,51 Z" fill="black"/>
  <path d="M 30,50 Z" fill="black"/>
  <path d="M 6,50 L 7,50 Z" fill="black"/>
  <path d="M 1021,49 Z" fill="black"/>
  <path d="M 1011,49 L 1010,50 L 1010,51 L 1011,51 L 1011,50 L 1012,49 L 1013,49 L 1014,50 L 1013,51 L 1014,50 L 1014,49 Z" fill="black"/>
  <path d="M 33,49 L 34,49 L 35,50 L 34,49 Z" fill="black"/>
  <path d="M 27,49 L 27,52 L 26,53 L 24,51 L 25,52 L 25,53 L 23,55 L 22,55 L 23,56 L 22,57 L 22,58 L 21,59 L 21,60 L 22,61 L 21,62 L 20,62 L 20,63 L 22,63 L 23,64 L 23,65 L 24,66 L 24,67 L 26,69 L 27,68 L 28,69 L 29,69 L 30,70 L 31,70 L 30,69 L 28,69 L 26,67 L 27,66 L 26,67 L 25,66 L 25,65 L 24,64 L 23,64 L 22,63 L 22,62 L 23,61 L 24,61 L 26,63 L 27,63 L 28,62 L 28,61 L 27,61 L 26,62 L 25,61 L 25,58 L 26,57 L 25,56 L 25,55 L 26,54 L 26,53 L 27,52 Z" fill="black"/>
  <path d="M 10,49 L 11,49 Z" fill="black"/>
  <path d="M 55,48 L 55,49 L 54,50 L 55,49 L 56,50 L 57,49 L 56,50 L 55,49 Z" fill="black"/>
  <path d="M 29,48 Z" fill="black"/>
  <path d="M 13,48 Z" fill="black"/>
  <path d="M 102,47 L 102,48 Z" fill="black"/>
  <path d="M 98,47 Z" fill="black"/>
  <path d="M 38,47 L 37,48 L 36,48 L 37,48 L 38,49 L 37,48 Z" fill="black"/>
  <path d="M 27,47 Z" fill="black"/>
  <path d="M 1,47 L 0,48 L 1,49 Z" fill="black"/>
  <path d="M 1023,46 L 1023,47 Z" fill="black"/>
  <path d="M 1021,46 Z" fill="black"/>
  <path d="M 100,46 L 100,47 Z" fill="black"/>
  <path d="M 41,46 L 41,47 L 42,48 L 41,49 L 42,50 L 43,49 L 41,47 Z" fill="black"/>
  <path d="M 36,46 Z" fill="black"/>
  <path d="M 9,46 L 10,47 Z" fill="black"/>
  <path d="M 16,45 L 18,47 L 17,48 L 16,48 L 15,49 L 16,50 L 15,49 L 16,48 L 17,48 L 18,49 L 19,49 L 18,49 L 17,48 L 18,47 Z" fill="black"/>
  <path d="M 6,45 Z" fill="black"/>
  <path d="M 44,44 L 43,45 L 44,45 L 45,46 L 45,45 Z" fill="black"/>
  <path d="M 29,44 L 28,45 L 29,44 L 30,44 L 31,45 L 30,46 L 31,46 L 31,45 L 30,44 Z" fill="black"/>
  <path d="M 3,44 L 3,46 L 4,46 L 5,47 L 3,45 L 4,44 Z" fill="black"/>
  <path d="M 35,43 L 34,44 L 34,45 L 33,46 L 35,44 Z" fill="black"/>
  <path d="M 19,43 L 18,44 Z" fill="black"/>
  <path d="M 11,43 L 12,44 Z" fill="black"/>
  <path d="M 8,43 L 9,44 Z" fill="black"/>
  <path d="M 1022,42 L 1023,43 L 1023,42 Z" fill="black"/>
  <path d="M 123,42 Z" fill="black"/>
  <path d="M 70,42 L 71,43 L 71,44 L 71,43 L 72,42 L 71,43 Z" fill="black"/>
  <path d="M 45,42 Z" fill="black"/>
  <path d="M 29,42 Z" fill="black"/>
  <path d="M 27,42 Z" fill="black"/>
  <path d="M 22,42 L 22,43 L 20,45 L 20,47 L 21,47 L 22,48 L 21,49 L 22,48 L 23,49 L 24,48 L 24,47 L 26,45 L 25,46 L 24,46 L 23,45 L 22,45 L 21,44 L 22,43 L 23,43 Z" fill="black"/>
  <path d="M 13,42 L 14,43 L 15,42 L 14,43 Z" fill="black"/>
  <path d="M 6,42 Z" fill="black"/>
  <path d="M 68,41 L 66,43 L 65,43 L 67,43 L 67,42 Z" fill="black"/>
  <path d="M 60,41 Z" fill="black"/>
  <path d="M 3,41 L 3,42 Z" fill="black"/>
  <path d="M 1020,40 Z" fill="black"/>
  <path d="M 93,40 Z" fill="black"/>
  <path d="M 56,40 L 54,42 L 54,44 L 55,45 L 55,46 L 56,46 L 57,45 L 57,44 L 58,43 L 57,43 L 56,42 L 57,41 L 58,41 L 57,40 Z" fill="black"/>
  <path d="M 51,40 L 51,41 Z" fill="black"/>
  <path d="M 47,40 L 47,44 L 49,46 L 49,47 L 48,48 L 48,49 L 49,49 L 48,48 L 49,47 L 51,47 L 52,48 L 51,49 L 51,50 L 49,52 L 48,51 L 47,51 L 46,50 L 45,51 L 44,51 L 45,51 L 46,50 L 47,51 L 47,55 L 48,54 L 49,55 L 48,54 L 49,53 L 52,53 L 50,53 L 49,52 L 52,49 L 52,47 L 53,46 L 51,44 L 51,43 L 50,43 L 49,42 L 48,42 L 47,41 L 48,40 L 49,40 Z" fill="black"/>
  <path d="M 41,40 L 41,41 L 40,42 L 39,41 L 38,42 L 38,43 L 39,44 L 38,45 L 39,44 L 40,44 L 41,43 L 40,42 L 41,41 L 43,41 L 42,41 Z" fill="black"/>
  <path d="M 32,40 Z" fill="black"/>
  <path d="M 21,40 Z" fill="black"/>
  <path d="M 16,40 L 17,40 Z" fill="black"/>
  <path d="M 11,40 L 11,41 Z" fill="black"/>
  <path d="M 122,39 Z" fill="black"/>
  <path d="M 23,39 L 24,40 L 26,40 L 27,39 L 28,39 L 26,39 L 25,40 L 24,40 Z" fill="black"/>
  <path d="M 1023,38 Z" fill="black"/>
  <path d="M 998,38 Z" fill="black"/>
  <path d="M 60,38 Z" fill="black"/>
  <path d="M 1011,37 L 1012,38 Z" fill="black"/>
  <path d="M 991,37 Z" fill="black"/>
  <path d="M 986,37 L 987,37 L 988,38 L 989,37 Z" fill="black"/>
  <path d="M 120,37 Z" fill="black"/>
  <path d="M 116,37 L 116,38 Z" fill="black"/>
  <path d="M 93,37 L 92,38 L 93,38 Z" fill="black"/>
  <path d="M 75,37 Z" fill="black"/>
  <path d="M 55,37 L 56,37 Z" fill="black"/>
  <path d="M 41,37 Z" fill="black"/>
  <path d="M 37,37 Z" fill="black"/>
  <path d="M 6,37 L 7,38 Z" fill="black"/>
  <path d="M 4,37 Z" fill="black"/>
  <path d="M 0,37 L 1,38 Z" fill="black"/>
  <path d="M 1017,36 Z" fill="black"/>
  <path d="M 1014,36 Z" fill="black"/>
  <path d="M 66,36 Z" fill="black"/>
  <path d="M 59,36 Z" fill="black"/>
  <path d="M 51,36 L 49,38 L 48,37 L 49,38 L 50,37 L 51,38 L 53,38 L 51,38 L 50,37 Z" fill="black"/>
  <path d="M 30,36 L 29,37 Z" fill="black"/>
  <path d="M 1023,35 L 1023,36 Z" fill="black"/>
  <path d="M 1019,35 L 1019,37 L 1020,38 L 1019,37 Z" fill="black"/>
  <path d="M 990,35 Z" fill="black"/>
  <path d="M 100,35 L 100,36 L 101,36 L 102,35 Z" fill="black"/>
  <path d="M 93,35 L 94,35 Z" fill="black"/>
  <path d="M 91,35 Z" fill="black"/>
  <path d="M 35,35 L 35,36 Z" fill="black"/>
  <path d="M 19,35 L 18,36 L 19,37 L 18,38 L 17,38 L 18,38 L 19,37 L 18,36 Z" fill="black"/>
  <path d="M 3,35 Z" fill="black"/>
  <path d="M 1,35 Z" fill="black"/>
  <path d="M 993,34 L 994,35 L 994,36 L 993,37 L 993,39 L 993,37 L 994,36 L 994,35 Z" fill="black"/>
  <path d="M 73,34 L 72,35 L 71,35 L 70,36 L 69,36 L 68,37 L 68,38 L 67,39 L 66,39 L 64,37 L 62,37 L 64,37 L 65,38 L 64,39 L 64,40 L 63,41 L 62,40 L 62,39 L 62,40 L 63,41 L 63,42 L 66,39 L 67,39 L 68,38 L 68,37 L 69,36 L 71,38 L 71,39 L 72,38 L 73,39 L 72,38 L 72,37 L 73,36 Z" fill="black"/>
  <path d="M 57,34 L 56,35 L 55,35 L 56,35 Z" fill="black"/>
  <path d="M 43,34 Z" fill="black"/>
  <path d="M 31,34 L 32,35 L 32,37 L 34,39 L 32,37 L 32,35 Z" fill="black"/>
  <path d="M 27,34 L 29,34 Z" fill="black"/>
  <path d="M 991,33 Z" fill="black"/>
  <path d="M 99,33 Z" fill="black"/>
  <path d="M 96,33 L 97,33 Z" fill="black"/>
  <path d="M 82,33 L 83,34 L 81,36 L 81,37 L 81,36 L 83,34 L 83,33 Z" fill="black"/>
  <path d="M 61,33 Z" fill="black"/>
  <path d="M 39,33 L 39,34 L 38,35 L 39,34 L 40,34 L 41,35 Z" fill="black"/>
  <path d="M 35,33 Z" fill="black"/>
  <path d="M 33,33 Z" fill="black"/>
  <path d="M 14,33 L 15,34 L 14,35 L 15,35 L 17,33 L 16,34 L 15,34 Z" fill="black"/>
  <path d="M 1019,32 Z" fill="black"/>
  <path d="M 1005,32 L 1005,34 Z" fill="black"/>
  <path d="M 109,32 Z" fill="black"/>
  <path d="M 48,32 L 46,34 L 45,33 L 46,34 L 45,35 L 45,36 L 44,37 L 43,37 L 44,37 L 45,36 L 46,37 L 46,38 L 46,37 L 45,36 L 46,35 L 46,34 Z" fill="black"/>
  <path d="M 8,32 L 8,33 Z" fill="black"/>
  <path d="M 72,31 Z" fill="black"/>
  <path d="M 59,31 Z" fill="black"/>
  <path d="M 52,31 L 53,31 Z" fill="black"/>
  <path d="M 18,31 Z" fill="black"/>
  <path d="M 11,31 L 11,32 L 10,33 L 11,34 L 11,35 L 10,36 L 9,36 L 9,37 L 10,36 L 11,36 Z" fill="black"/>
  <path d="M 0,31 L 1,31 Z" fill="black"/>
  <path d="M 70,30 Z" fill="black"/>
  <path d="M 68,30 Z" fill="black"/>
  <path d="M 44,30 L 45,30 Z" fill="black"/>
  <path d="M 39,30 L 40,31 L 41,30 L 42,31 L 41,30 L 40,31 Z" fill="black"/>
  <path d="M 14,30 L 15,31 L 16,31 L 15,30 Z" fill="black"/>
  <path d="M 1008,29 L 1009,30 L 1009,31 L 1007,33 L 1008,34 L 1006,36 L 1005,36 L 1006,36 L 1010,32 L 1011,33 L 1012,33 L 1011,33 L 1009,31 L 1009,30 Z" fill="black"/>
  <path d="M 1004,29 L 1005,30 L 1006,29 L 1005,30 Z" fill="black"/>
  <path d="M 126,29 Z" fill="black"/>
  <path d="M 96,29 L 97,30 L 97,31 L 98,31 Z" fill="black"/>
  <path d="M 89,29 Z" fill="black"/>
  <path d="M 72,29 Z" fill="black"/>
  <path d="M 56,29 Z" fill="black"/>
  <path d="M 51,29 Z" fill="black"/>
  <path d="M 36,29 L 36,30 Z" fill="black"/>
  <path d="M 2,29 Z" fill="black"/>
  <path d="M 1023,28 Z" fill="black"/>
  <path d="M 1001,28 L 1000,29 L 1001,30 L 1000,31 L 999,31 L 998,30 L 1000,32 L 1000,34 L 998,36 L 997,36 L 996,35 L 997,36 L 998,36 L 999,35 L 1002,38 L 1003,37 L 1004,38 L 1004,39 L 1005,38 L 1007,38 L 1004,38 L 1003,37 L 1003,36 L 1003,37 L 1002,38 L 1001,37 L 1001,36 L 1000,36 L 999,35 L 1003,31 L 1002,31 L 1001,30 L 1002,29 L 1002,28 Z" fill="black"/>
  <path d="M 996,28 Z" fill="black"/>
  <path d="M 81,28 Z" fill="black"/>
  <path d="M 59,28 Z" fill="black"/>
  <path d="M 48,28 L 48,30 L 49,30 L 50,31 L 48,29 Z" fill="black"/>
  <path d="M 27,28 Z" fill="black"/>
  <path d="M 23,28 Z" fill="black"/>
  <path d="M 20,28 L 20,30 L 21,31 L 21,32 L 23,34 L 23,35 L 24,36 L 23,37 L 24,36 L 25,36 L 24,36 L 23,35 L 23,34 L 21,32 L 22,31 L 23,31 L 24,30 L 25,30 L 26,31 L 25,32 L 26,31 L 25,30 L 25,29 L 23,31 Z" fill="black"/>
  <path d="M 18,28 L 18,29 Z" fill="black"/>
  <path d="M 15,28 Z" fill="black"/>
  <path d="M 12,28 Z" fill="black"/>
  <path d="M 94,27 L 93,28 L 91,28 L 92,29 L 91,30 L 92,29 L 94,31 L 92,33 L 91,33 L 92,33 L 94,31 L 92,29 L 93,28 L 94,28 L 95,27 Z" fill="black"/>
  <path d="M 83,27 L 83,28 Z" fill="black"/>
  <path d="M 55,27 L 54,28 Z" fill="black"/>
  <path d="M 39,27 L 38,28 Z" fill="black"/>
  <path d="M 7,27 L 6,28 L 6,29 L 7,30 L 8,29 L 9,30 L 8,29 L 7,30 L 6,29 L 6,28 Z" fill="black"/>
  <path d="M 3,27 Z" fill="black"/>
  <path d="M 1013,26 L 1013,27 L 1014,28 L 1014,29 L 1016,29 L 1017,30 L 1016,31 L 1016,32 L 1015,33 L 1016,32 L 1016,31 L 1017,30 L 1017,29 L 1015,29 L 1013,27 Z" fill="black"/>
  <path d="M 1011,26 L 1011,28 L 1012,29 L 1012,30 L 1012,29 L 1011,28 Z" fill="black"/>
  <path d="M 1005,26 L 1006,26 Z" fill="black"/>
  <path d="M 119,26 L 119,27 L 120,26 L 121,27 L 121,28 L 117,32 L 116,31 L 116,30 L 115,31 L 115,32 L 116,32 L 117,33 L 118,33 L 120,31 L 121,32 L 121,33 L 118,36 L 118,37 L 118,36 L 121,33 L 121,32 L 122,31 L 124,33 L 123,34 L 124,35 L 123,36 L 122,36 L 124,38 L 123,37 L 123,36 L 124,35 L 123,34 L 125,32 L 124,33 L 122,31 L 123,30 L 124,30 L 123,30 L 122,31 L 120,29 L 121,28 L 123,28 L 123,27 L 122,28 L 120,26 Z" fill="black"/>
  <path d="M 70,26 L 69,27 L 69,28 L 70,28 L 71,27 Z" fill="black"/>
  <path d="M 61,26 Z" fill="black"/>
  <path d="M 47,26 L 46,27 Z" fill="black"/>
  <path d="M 24,26 Z" fill="black"/>
  <path d="M 9,26 Z" fill="black"/>
  <path d="M 1019,25 Z" fill="black"/>
  <path d="M 999,25 L 1000,25 Z" fill="black"/>
  <path d="M 996,25 Z" fill="black"/>
  <path d="M 96,25 L 97,26 L 97,27 L 97,26 L 98,25 L 97,26 Z" fill="black"/>
  <path d="M 91,25 Z" fill="black"/>
  <path d="M 73,25 Z" fill="black"/>
  <path d="M 55,25 L 57,25 Z" fill="black"/>
  <path d="M 42,25 L 43,26 Z" fill="black"/>
  <path d="M 40,25 Z" fill="black"/>
  <path d="M 20,25 L 19,26 L 20,25 L 21,26 Z" fill="black"/>
  <path d="M 14,25 L 15,26 Z" fill="black"/>
  <path d="M 1021,24 L 1021,27 L 1020,28 L 1019,27 L 1020,28 L 1019,29 L 1020,30 L 1020,28 L 1021,27 L 1021,25 L 1022,24 Z" fill="black"/>
  <path d="M 1013,24 Z" fill="black"/>
  <path d="M 1010,24 Z" fill="black"/>
  <path d="M 1004,24 Z" fill="black"/>
  <path d="M 120,24 Z" fill="black"/>
  <path d="M 112,24 L 111,25 L 111,26 L 110,27 L 109,26 L 110,27 L 109,28 L 107,28 L 106,29 L 104,29 L 104,32 L 103,33 L 104,33 L 105,34 L 105,35 L 105,34 L 106,33 L 107,34 L 107,35 L 108,35 L 108,34 L 107,33 L 107,32 L 106,31 L 106,29 L 107,28 L 108,29 L 108,30 L 108,29 L 109,28 L 110,29 L 111,29 L 112,30 L 112,31 L 111,32 L 111,33 L 112,32 L 113,32 L 112,31 L 112,30 L 113,29 L 112,29 L 111,28 L 111,25 Z" fill="black"/>
  <path d="M 64,24 L 65,25 L 64,26 L 64,29 L 63,30 L 62,29 L 61,29 L 62,29 L 63,30 L 63,31 L 64,32 L 64,33 L 63,34 L 63,35 L 64,34 L 65,34 L 66,33 L 65,32 L 64,32 L 63,31 L 63,30 L 64,29 L 65,30 L 66,30 L 65,29 L 65,28 L 64,27 L 64,26 L 65,25 Z" fill="black"/>
  <path d="M 60,24 L 59,25 L 60,24 L 61,24 Z" fill="black"/>
  <path d="M 47,24 L 48,24 L 49,25 L 50,25 L 51,26 L 53,26 L 52,26 L 51,25 L 51,24 L 50,25 L 49,25 L 48,24 Z" fill="black"/>
  <path d="M 38,24 Z" fill="black"/>
  <path d="M 7,24 L 7,25 L 8,24 Z" fill="black"/>
  <path d="M 1016,23 L 1016,24 L 1017,25 L 1017,27 L 1017,25 L 1016,24 Z" fill="black"/>
  <path d="M 1008,23 L 1007,24 L 1008,25 L 1007,24 Z" fill="black"/>
  <path d="M 1002,23 L 1002,25 L 1003,26 L 1002,25 Z" fill="black"/>
  <path d="M 994,23 Z" fill="black"/>
  <path d="M 90,23 L 89,24 L 87,24 L 87,25 L 88,26 L 87,27 L 89,25 L 89,24 Z" fill="black"/>
  <path d="M 56,23 Z" fill="black"/>
  <path d="M 53,23 Z" fill="black"/>
  <path d="M 34,23 Z" fill="black"/>
  <path d="M 32,23 L 32,24 Z" fill="black"/>
  <path d="M 30,23 L 30,24 L 29,25 L 31,27 L 30,28 L 31,29 L 30,28 L 32,26 L 31,27 L 29,25 L 30,24 Z" fill="black"/>
  <path d="M 15,23 Z" fill="black"/>
  <path d="M 1,23 L 0,24 L 1,23 L 2,24 L 3,24 L 4,25 L 3,24 L 2,24 Z" fill="black"/>
  <path d="M 113,22 Z" fill="black"/>
  <path d="M 110,22 L 110,23 L 109,24 L 110,23 Z" fill="black"/>
  <path d="M 66,22 Z" fill="black"/>
  <path d="M 49,22 Z" fill="black"/>
  <path d="M 43,22 L 42,23 L 41,23 L 42,23 L 43,22 L 44,22 Z" fill="black"/>
  <path d="M 38,22 Z" fill="black"/>
  <path d="M 36,22 Z" fill="black"/>
  <path d="M 27,22 L 27,23 Z" fill="black"/>
  <path d="M 1011,21 Z" fill="black"/>
  <path d="M 1005,21 Z" fill="black"/>
  <path d="M 998,21 Z" fill="black"/>
  <path d="M 121,21 Z" fill="black"/>
  <path d="M 115,21 L 116,22 L 116,24 L 115,25 L 114,25 L 113,26 L 113,27 L 115,27 L 115,25 L 116,24 L 117,25 L 118,24 L 118,22 L 118,24 L 117,25 L 116,24 L 116,21 Z" fill="black"/>
  <path d="M 99,21 L 98,22 L 100,24 L 100,25 L 101,26 L 101,28 L 102,29 L 101,30 L 100,30 L 99,29 L 100,30 L 101,30 L 102,31 L 101,32 L 101,33 L 101,32 L 102,31 L 102,29 L 101,28 L 101,25 L 100,24 L 101,23 Z" fill="black"/>
  <path d="M 85,21 L 86,22 Z" fill="black"/>
  <path d="M 79,21 L 80,22 L 80,23 L 78,25 L 77,24 L 76,25 L 75,24 L 77,26 L 79,26 L 78,25 L 79,24 L 80,24 L 81,25 L 81,26 L 81,25 L 82,24 L 83,25 L 82,24 L 83,23 L 82,23 L 81,22 L 80,22 Z" fill="black"/>
  <path d="M 74,21 L 73,22 Z" fill="black"/>
  <path d="M 62,21 Z" fill="black"/>
  <path d="M 46,21 L 47,21 Z" fill="black"/>
  <path d="M 34,21 Z" fill="black"/>
  <path d="M 29,21 Z" fill="black"/>
  <path d="M 22,21 L 23,22 L 23,21 Z" fill="black"/>
  <path d="M 14,21 Z" fill="black"/>
  <path d="M 11,21 Z" fill="black"/>
  <path d="M 1017,20 L 1016,21 L 1017,20 L 1018,21 L 1019,21 L 1020,22 L 1019,23 L 1020,22 L 1020,21 L 1021,20 L 1022,21 L 1022,22 L 1022,20 L 1021,20 L 1020,21 L 1018,21 Z" fill="black"/>
  <path d="M 977,20 Z" fill="black"/>
  <path d="M 969,20 L 969,21 L 968,22 L 969,21 Z" fill="black"/>
  <path d="M 91,20 L 91,21 L 92,22 L 91,21 Z" fill="black"/>
  <path d="M 69,20 L 68,21 L 68,22 L 69,23 L 69,24 L 68,25 L 67,25 L 67,26 L 70,23 L 71,23 L 70,23 L 69,22 Z" fill="black"/>
  <path d="M 38,20 Z" fill="black"/>
  <path d="M 31,20 L 31,21 L 32,21 Z" fill="black"/>
  <path d="M 27,20 Z" fill="black"/>
  <path d="M 6,20 L 6,21 L 5,22 L 6,21 L 7,21 Z" fill="black"/>
  <path d="M 1019,19 Z" fill="black"/>
  <path d="M 1010,19 Z" fill="black"/>
  <path d="M 993,19 L 993,20 L 994,20 L 996,22 L 995,21 L 995,19 L 994,20 Z" fill="black"/>
  <path d="M 971,19 L 971,21 L 972,22 L 972,21 L 973,20 L 972,20 Z" fill="black"/>
  <path d="M 96,19 L 97,20 L 96,21 L 98,19 Z" fill="black"/>
  <path d="M 81,19 L 82,20 L 83,19 L 82,20 Z" fill="black"/>
  <path d="M 73,19 Z" fill="black"/>
  <path d="M 63,19 L 64,20 L 65,20 L 64,20 Z" fill="black"/>
  <path d="M 56,19 L 57,20 Z" fill="black"/>
  <path d="M 51,19 Z" fill="black"/>
  <path d="M 49,19 Z" fill="black"/>
  <path d="M 46,19 L 47,19 Z" fill="black"/>
  <path d="M 43,19 Z" fill="black"/>
  <path d="M 23,19 Z" fill="black"/>
  <path d="M 15,19 L 16,20 L 17,19 L 18,20 L 18,21 L 17,22 L 17,23 L 17,22 L 19,20 L 20,21 L 20,22 L 21,23 L 20,22 L 20,21 L 19,20 L 19,19 L 17,19 L 16,20 Z" fill="black"/>
  <path d="M 1016,18 L 1015,19 L 1013,19 L 1013,20 L 1014,20 Z" fill="black"/>
  <path d="M 1005,18 L 1005,19 Z" fill="black"/>
  <path d="M 991,18 L 990,19 L 991,19 Z" fill="black"/>
  <path d="M 975,18 L 975,19 L 976,18 Z" fill="black"/>
  <path d="M 41,18 Z" fill="black"/>
  <path d="M 35,18 Z" fill="black"/>
  <path d="M 10,18 Z" fill="black"/>
  <path d="M 6,18 L 8,18 Z" fill="black"/>
  <path d="M 1021,17 L 1022,18 L 1023,17 L 1022,18 Z" fill="black"/>
  <path d="M 1008,17 L 1007,18 Z" fill="black"/>
  <path d="M 987,17 Z" fill="black"/>
  <path d="M 978,17 L 979,17 Z" fill="black"/>
  <path d="M 117,17 L 118,18 L 117,19 L 118,18 L 119,19 L 119,20 L 119,19 Z" fill="black"/>
  <path d="M 89,17 L 89,18 L 90,18 Z" fill="black"/>
  <path d="M 87,17 Z" fill="black"/>
  <path d="M 85,17 Z" fill="black"/>
  <path d="M 81,17 L 82,17 Z" fill="black"/>
  <path d="M 75,17 L 76,17 L 78,19 L 77,20 L 76,20 L 77,20 L 78,19 L 78,18 L 77,18 L 76,17 Z" fill="black"/>
  <path d="M 73,17 Z" fill="black"/>
  <path d="M 67,17 Z" fill="black"/>
  <path d="M 59,17 Z" fill="black"/>
  <path d="M 37,17 Z" fill="black"/>
  <path d="M 0,17 Z" fill="black"/>
  <path d="M 1019,16 L 1018,17 L 1019,17 Z" fill="black"/>
  <path d="M 1010,16 Z" fill="black"/>
  <path d="M 1000,16 L 1001,17 L 999,19 L 998,18 L 998,19 L 999,19 L 1001,17 L 1002,17 L 1003,18 L 1003,19 L 1002,20 L 1001,20 L 1002,21 L 1003,20 L 1003,17 L 1004,16 L 1005,16 L 1003,16 L 1002,17 L 1001,17 Z" fill="black"/>
  <path d="M 120,16 Z" fill="black"/>
  <path d="M 96,16 L 95,17 Z" fill="black"/>
  <path d="M 93,16 L 93,17 Z" fill="black"/>
  <path d="M 64,16 L 64,17 Z" fill="black"/>
  <path d="M 61,16 Z" fill="black"/>
  <path d="M 40,16 Z" fill="black"/>
  <path d="M 14,16 L 17,16 Z" fill="black"/>
  <path d="M 102,15 Z" fill="black"/>
  <path d="M 98,15 L 100,17 Z" fill="black"/>
  <path d="M 87,15 Z" fill="black"/>
  <path d="M 53,15 Z" fill="black"/>
  <path d="M 30,15 Z" fill="black"/>
  <path d="M 22,15 L 21,16 Z" fill="black"/>
  <path d="M 4,15 L 4,16 L 3,17 L 4,17 Z" fill="black"/>
  <path d="M 0,15 Z" fill="black"/>
  <path d="M 1022,14 Z" fill="black"/>
  <path d="M 1012,14 L 1012,15 L 1013,16 L 1013,14 Z" fill="black"/>
  <path d="M 1001,14 Z" fill="black"/>
  <path d="M 126,14 L 127,14 Z" fill="black"/>
  <path d="M 124,14 Z" fill="black"/>
  <path d="M 118,14 L 119,14 Z" fill="black"/>
  <path d="M 100,14 Z" fill="black"/>
  <path d="M 89,14 Z" fill="black"/>
  <path d="M 79,14 L 79,15 L 82,15 L 80,15 Z" fill="black"/>
  <path d="M 70,14 L 70,15 L 71,16 L 71,17 L 70,18 L 71,19 L 70,18 L 71,17 L 71,16 L 72,15 L 74,15 L 72,15 L 71,16 L 70,15 Z" fill="black"/>
  <path d="M 68,14 Z" fill="black"/>
  <path d="M 56,14 L 57,15 L 58,15 L 57,15 Z" fill="black"/>
  <path d="M 34,14 L 34,15 Z" fill="black"/>
  <path d="M 104,13 L 104,16 L 103,17 L 103,19 L 104,18 L 106,20 L 106,21 L 105,22 L 104,21 L 103,22 L 102,21 L 104,23 L 104,24 L 105,23 L 106,24 L 106,25 L 105,26 L 104,26 L 105,27 L 105,26 L 106,25 L 107,25 L 107,24 L 106,23 L 106,22 L 107,21 L 108,22 L 106,20 L 106,19 L 107,18 L 107,16 L 106,17 L 105,16 L 105,15 L 107,13 L 108,14 L 108,13 L 106,13 L 105,14 Z" fill="black"/>
  <path d="M 53,13 Z" fill="black"/>
  <path d="M 36,13 Z" fill="black"/>
  <path d="M 8,13 L 9,14 L 8,15 L 8,16 L 9,15 L 9,14 Z" fill="black"/>
  <path d="M 1016,12 L 1016,14 L 1015,15 L 1015,16 L 1016,16 L 1015,15 L 1016,14 Z" fill="black"/>
  <path d="M 124,12 Z" fill="black"/>
  <path d="M 121,12 L 121,13 Z" fill="black"/>
  <path d="M 90,12 L 92,14 Z" fill="black"/>
  <path d="M 83,12 L 84,13 L 84,14 L 85,14 L 86,13 L 87,13 L 86,13 L 85,12 L 84,13 Z" fill="black"/>
  <path d="M 64,12 L 64,13 L 63,14 L 64,13 L 65,14 L 64,13 Z" fill="black"/>
  <path d="M 47,12 L 45,14 L 44,14 L 45,14 L 46,15 L 46,13 Z" fill="black"/>
  <path d="M 33,12 L 34,12 Z" fill="black"/>
  <path d="M 26,12 L 25,13 L 26,12 L 28,12 Z" fill="black"/>
  <path d="M 15,12 L 16,13 L 15,14 L 16,13 Z" fill="black"/>
  <path d="M 13,12 L 12,13 L 13,13 Z" fill="black"/>
  <path d="M 5,12 L 5,13 L 6,14 L 5,13 Z" fill="black"/>
  <path d="M 0,12 L 1,13 Z" fill="black"/>
  <path d="M 1011,11 Z" fill="black"/>
  <path d="M 127,11 Z" fill="black"/>
  <path d="M 99,11 L 99,12 L 98,13 L 97,12 L 97,13 L 98,13 L 99,12 Z" fill="black"/>
  <path d="M 76,11 L 75,12 L 76,13 L 75,12 L 76,11 L 77,11 Z" fill="black"/>
  <path d="M 68,11 L 67,12 L 68,11 L 69,11 Z" fill="black"/>
  <path d="M 57,11 L 56,12 Z" fill="black"/>
  <path d="M 50,11 L 51,12 L 51,11 Z" fill="black"/>
  <path d="M 43,11 Z" fill="black"/>
  <path d="M 17,11 Z" fill="black"/>
  <path d="M 7,11 Z" fill="black"/>
  <path d="M 2,11 L 3,12 Z" fill="black"/>
  <path d="M 1021,10 L 1020,11 L 1020,14 L 1020,11 L 1021,10 L 1022,11 L 1022,12 L 1023,11 L 1022,11 Z" fill="black"/>
  <path d="M 982,10 L 983,11 Z" fill="black"/>
  <path d="M 110,10 L 109,11 L 110,10 L 112,10 L 113,11 L 113,14 L 112,15 L 111,15 L 110,14 L 110,13 L 110,15 L 109,16 L 109,17 L 110,18 L 110,20 L 111,20 L 112,19 L 113,19 L 112,19 L 111,18 L 111,17 L 110,16 L 111,15 L 112,15 L 114,17 L 113,16 L 114,15 L 115,15 L 116,14 L 115,13 L 114,13 L 113,12 L 113,11 L 112,10 Z" fill="black"/>
  <path d="M 107,10 Z" fill="black"/>
  <path d="M 53,10 Z" fill="black"/>
  <path d="M 47,10 Z" fill="black"/>
  <path d="M 30,10 L 30,11 L 31,10 Z" fill="black"/>
  <path d="M 22,10 L 21,11 L 21,12 L 22,12 L 21,11 L 22,10 L 23,10 Z" fill="black"/>
  <path d="M 10,10 L 9,11 L 10,12 L 10,11 L 11,10 Z" fill="black"/>
  <path d="M 1015,9 L 1015,10 L 1013,12 L 1015,10 Z" fill="black"/>
  <path d="M 995,9 L 995,10 Z" fill="black"/>
  <path d="M 123,9 Z" fill="black"/>
  <path d="M 91,9 Z" fill="black"/>
  <path d="M 59,9 L 59,12 L 61,10 L 60,11 L 59,10 Z" fill="black"/>
  <path d="M 39,9 L 40,10 L 39,11 L 41,9 Z" fill="black"/>
  <path d="M 1023,8 L 1023,9 Z" fill="black"/>
  <path d="M 1007,8 L 1007,9 L 1006,10 L 1007,9 L 1008,9 L 1009,10 L 1007,12 L 1006,12 L 1005,13 L 1003,11 L 1003,10 L 1003,12 L 1004,12 L 1005,13 L 1004,14 L 1005,13 L 1007,15 L 1005,13 L 1006,12 L 1007,12 L 1009,10 Z" fill="black"/>
  <path d="M 1000,8 L 999,9 L 1001,11 L 1000,12 L 999,12 L 998,11 L 997,12 L 1001,12 L 1001,9 Z" fill="black"/>
  <path d="M 119,8 L 118,9 L 118,10 L 119,11 L 118,12 L 119,12 L 119,11 L 118,10 L 120,8 Z" fill="black"/>
  <path d="M 113,8 L 116,11 L 115,10 L 115,9 L 116,8 L 115,9 L 114,8 Z" fill="black"/>
  <path d="M 107,8 L 108,8 Z" fill="black"/>
  <path d="M 96,8 L 96,9 L 95,10 L 94,10 L 94,11 L 95,11 L 97,9 L 97,8 Z" fill="black"/>
  <path d="M 89,8 L 88,9 L 87,9 L 88,10 L 87,11 L 89,9 Z" fill="black"/>
  <path d="M 78,8 Z" fill="black"/>
  <path d="M 67,8 L 68,9 Z" fill="black"/>
  <path d="M 21,8 Z" fill="black"/>
  <path d="M 18,8 L 17,9 L 18,8 L 19,9 Z" fill="black"/>
  <path d="M 12,8 Z" fill="black"/>
  <path d="M 10,8 Z" fill="black"/>
  <path d="M 1019,7 L 1018,8 L 1019,9 L 1018,8 Z" fill="black"/>
  <path d="M 124,7 L 125,8 L 125,9 L 125,8 Z" fill="black"/>
  <path d="M 111,7 Z" fill="black"/>
  <path d="M 102,7 L 103,8 L 103,10 L 104,11 L 105,11 L 103,9 L 103,8 Z" fill="black"/>
  <path d="M 100,7 L 99,8 L 99,9 L 100,9 L 101,10 L 101,11 L 101,10 L 100,9 Z" fill="black"/>
  <path d="M 87,7 Z" fill="black"/>
  <path d="M 63,7 L 64,8 L 64,10 L 64,7 Z" fill="black"/>
  <path d="M 42,7 Z" fill="black"/>
  <path d="M 36,7 L 36,8 L 35,9 L 35,10 L 35,9 L 36,8 Z" fill="black"/>
  <path d="M 33,7 L 32,8 Z" fill="black"/>
  <path d="M 25,7 L 25,9 L 26,9 L 26,8 Z" fill="black"/>
  <path d="M 1,7 L 0,8 Z" fill="black"/>
  <path d="M 1010,6 Z" fill="black"/>
  <path d="M 1004,6 L 1004,7 Z" fill="black"/>
  <path d="M 995,6 L 996,7 L 996,6 Z" fill="black"/>
  <path d="M 964,6 Z" fill="black"/>
  <path d="M 136,6 L 138,6 Z" fill="black"/>
  <path d="M 119,6 Z" fill="black"/>
  <path d="M 94,6 Z" fill="black"/>
  <path d="M 84,6 L 85,7 L 83,9 L 82,8 L 83,9 L 82,10 L 81,10 L 80,9 L 80,7 L 80,9 L 81,10 L 81,12 L 81,11 L 82,10 L 83,10 L 83,9 L 85,7 Z" fill="black"/>
  <path d="M 72,6 L 71,7 L 72,8 L 71,9 L 70,9 L 71,9 L 72,8 L 74,10 L 73,11 L 73,12 L 73,11 L 75,9 L 76,9 L 76,8 L 75,9 L 73,9 L 72,8 Z" fill="black"/>
  <path d="M 69,6 Z" fill="black"/>
  <path d="M 49,6 Z" fill="black"/>
  <path d="M 21,6 Z" fill="black"/>
  <path d="M 12,6 Z" fill="black"/>
  <path d="M 1008,5 L 1007,6 Z" fill="black"/>
  <path d="M 966,5 L 967,6 L 969,6 L 970,5 L 971,5 L 970,5 L 969,6 L 967,6 Z" fill="black"/>
  <path d="M 961,5 L 961,6 Z" fill="black"/>
  <path d="M 121,5 Z" fill="black"/>
  <path d="M 115,5 L 114,6 L 115,5 L 116,5 Z" fill="black"/>
  <path d="M 107,5 L 108,6 Z" fill="black"/>
  <path d="M 105,5 Z" fill="black"/>
  <path d="M 96,5 L 97,6 L 98,6 L 97,6 Z" fill="black"/>
  <path d="M 88,5 L 89,6 L 92,6 L 89,6 Z" fill="black"/>
  <path d="M 79,5 Z" fill="black"/>
  <path d="M 63,5 Z" fill="black"/>
  <path d="M 57,5 L 56,6 L 55,6 L 56,7 L 56,8 L 55,9 L 56,8 L 56,6 Z" fill="black"/>
  <path d="M 32,5 L 31,6 Z" fill="black"/>
  <path d="M 17,5 Z" fill="black"/>
  <path d="M 14,5 Z" fill="black"/>
  <path d="M 6,5 L 4,7 L 3,6 L 4,7 Z" fill="black"/>
  <path d="M 0,5 Z" fill="black"/>
  <path d="M 997,4 L 998,5 L 998,6 L 999,5 L 998,5 Z" fill="black"/>
  <path d="M 995,4 Z" fill="black"/>
  <path d="M 979,4 Z" fill="black"/>
  <path d="M 126,4 L 126,6 L 127,5 Z" fill="black"/>
  <path d="M 123,4 Z" fill="black"/>
  <path d="M 92,4 Z" fill="black"/>
  <path d="M 83,4 Z" fill="black"/>
  <path d="M 45,4 Z" fill="black"/>
  <path d="M 29,4 L 28,5 L 29,6 L 28,5 Z" fill="black"/>
  <path d="M 24,4 L 25,5 Z" fill="black"/>
  <path d="M 21,4 Z" fill="black"/>
  <path d="M 19,4 Z" fill="black"/>
  <path d="M 9,4 Z" fill="black"/>
  <path d="M 3,4 Z" fill="black"/>
  <path d="M 1007,3 Z" fill="black"/>
  <path d="M 1003,3 L 1003,4 Z" fill="black"/>
  <path d="M 1001,3 Z" fill="black"/>
  <path d="M 993,3 L 993,5 Z" fill="black"/>
  <path d="M 972,3 L 974,5 Z" fill="black"/>
  <path d="M 968,3 L 968,4 Z" fill="black"/>
  <path d="M 963,3 L 964,3 Z" fill="black"/>
  <path d="M 961,3 Z" fill="black"/>
  <path d="M 153,3 Z" fill="black"/>
  <path d="M 115,3 Z" fill="black"/>
  <path d="M 111,3 L 111,4 L 110,5 L 111,4 L 112,5 L 113,4 L 112,5 L 111,4 Z" fill="black"/>
  <path d="M 107,3 Z" fill="black"/>
  <path d="M 41,3 L 41,4 Z" fill="black"/>
  <path d="M 32,3 Z" fill="black"/>
  <path d="M 1022,2 Z" fill="black"/>
  <path d="M 1011,2 Z" fill="black"/>
  <path d="M 77,2 Z" fill="black"/>
  <path d="M 46,2 Z" fill="black"/>
  <path d="M 5,2 Z" fill="black"/>
  <path d="M 0,2 L 1,3 Z" fill="black"/>
  <path d="M 118,1 L 117,2 L 118,3 L 118,4 L 119,3 L 118,2 L 119,1 Z" fill="black"/>
  <path d="M 115,1 Z" fill="black"/>
  <path d="M 98,1 L 99,1 Z" fill="black"/>
  <path d="M 90,1 Z" fill="black"/>
  <path d="M 83,1 Z" fill="black"/>
  <path d="M 80,1 L 79,2 Z" fill="black"/>
  <path d="M 75,1 L 74,2 L 74,3 L 75,4 L 75,6 L 76,6 L 75,5 Z" fill="black"/>
  <path d="M 55,1 L 57,3 L 58,3 L 57,2 L 56,2 Z" fill="black"/>
  <path d="M 41,1 Z" fill="black"/>
  <path d="M 7,1 Z" fill="black"/>
  <path d="M 2,1 Z" fill="black"/>
  <path d="M 1020,0 L 1019,1 L 1018,1 L 1019,2 L 1018,3 L 1019,2 L 1021,4 L 1020,5 L 1019,5 L 1020,5 L 1021,4 L 1019,2 L 1019,1 Z" fill="black"/>
  <path d="M 1016,0 L 1013,3 L 1015,5 L 1014,6 L 1013,6 L 1012,7 L 1012,8 L 1011,9 L 1012,8 L 1013,8 L 1012,7 L 1013,6 L 1015,6 L 1016,7 L 1015,6 L 1016,5 L 1015,5 L 1013,3 Z" fill="black"/>
  <path d="M 1000,0 L 999,1 L 995,1 L 995,2 L 996,1 L 999,1 Z" fill="black"/>
  <path d="M 993,0 Z" fill="black"/>
  <path d="M 990,0 L 991,1 L 989,3 L 991,3 L 990,2 L 991,1 Z" fill="black"/>
  <path d="M 987,0 L 986,1 L 987,1 Z" fill="black"/>
  <path d="M 983,0 L 983,1 L 984,1 Z" fill="black"/>
  <path d="M 981,0 Z" fill="black"/>
  <path d="M 976,0 L 976,2 Z" fill="black"/>
  <path d="M 973,0 L 973,1 Z" fill="black"/>
  <path d="M 968,0 L 968,1 L 971,1 L 969,1 Z" fill="black"/>
  <path d="M 956,0 Z" fill="black"/>
  <path d="M 154,0 L 154,1 L 157,1 L 157,0 L 156,1 L 155,0 Z" fill="black"/>
  <path d="M 144,0 L 144,2 L 140,6 L 141,5 L 142,5 L 143,4 L 145,6 L 145,7 L 144,8 L 143,8 L 142,9 L 141,8 L 140,9 L 139,8 L 138,9 L 136,9 L 135,8 L 134,9 L 130,9 L 129,8 L 130,7 L 129,8 L 128,7 L 128,9 L 129,10 L 129,15 L 127,17 L 128,16 L 129,17 L 130,17 L 131,18 L 129,20 L 128,20 L 127,19 L 126,19 L 125,20 L 123,18 L 123,17 L 122,17 L 124,19 L 123,20 L 124,19 L 125,20 L 125,21 L 122,24 L 123,25 L 124,24 L 125,24 L 127,26 L 126,27 L 127,26 L 129,28 L 128,29 L 129,30 L 129,31 L 127,33 L 130,36 L 129,37 L 127,37 L 126,36 L 126,35 L 126,37 L 131,37 L 132,38 L 131,39 L 128,39 L 127,40 L 126,40 L 125,41 L 124,40 L 126,42 L 126,43 L 125,44 L 126,45 L 125,46 L 124,46 L 123,45 L 123,46 L 122,47 L 121,46 L 121,44 L 120,43 L 120,42 L 121,41 L 120,40 L 117,40 L 115,42 L 114,41 L 114,39 L 113,38 L 113,37 L 115,35 L 115,34 L 115,35 L 114,36 L 113,35 L 113,34 L 113,35 L 112,36 L 111,36 L 110,35 L 110,36 L 108,38 L 107,37 L 107,38 L 106,39 L 106,40 L 105,41 L 104,40 L 104,38 L 104,41 L 105,41 L 106,42 L 105,43 L 106,42 L 108,44 L 107,45 L 106,45 L 105,46 L 105,47 L 104,48 L 105,49 L 104,50 L 102,50 L 102,51 L 101,52 L 100,52 L 99,51 L 98,52 L 97,51 L 97,50 L 98,49 L 100,49 L 97,49 L 96,48 L 96,44 L 97,43 L 98,44 L 99,43 L 100,44 L 101,44 L 102,45 L 103,45 L 103,43 L 102,44 L 101,43 L 100,44 L 99,43 L 98,44 L 96,42 L 97,41 L 97,40 L 98,39 L 99,40 L 99,41 L 100,41 L 101,40 L 102,40 L 101,40 L 100,41 L 99,40 L 99,39 L 98,39 L 97,38 L 98,37 L 97,36 L 98,37 L 97,38 L 98,39 L 97,40 L 96,40 L 94,42 L 93,42 L 92,43 L 91,42 L 91,40 L 90,39 L 90,37 L 88,39 L 87,38 L 87,36 L 86,35 L 86,34 L 87,33 L 89,35 L 87,33 L 88,32 L 89,32 L 88,31 L 87,31 L 86,30 L 86,29 L 85,29 L 84,30 L 83,30 L 82,31 L 81,30 L 82,31 L 83,30 L 84,31 L 85,31 L 86,30 L 87,31 L 87,33 L 86,34 L 85,34 L 86,35 L 84,37 L 84,38 L 87,38 L 88,39 L 87,40 L 87,41 L 86,42 L 84,42 L 83,41 L 83,40 L 82,40 L 81,39 L 80,39 L 79,38 L 78,38 L 77,37 L 79,35 L 78,34 L 79,33 L 79,32 L 78,31 L 78,29 L 79,28 L 78,29 L 77,28 L 76,28 L 75,27 L 75,29 L 74,30 L 75,30 L 76,31 L 75,32 L 75,33 L 77,33 L 78,34 L 77,35 L 78,36 L 77,37 L 78,38 L 78,39 L 77,40 L 76,39 L 76,40 L 75,41 L 74,41 L 75,42 L 75,43 L 76,44 L 76,45 L 75,46 L 74,45 L 73,45 L 72,46 L 72,47 L 73,46 L 74,47 L 75,47 L 76,48 L 74,50 L 73,49 L 71,49 L 69,47 L 68,47 L 67,46 L 69,44 L 68,45 L 66,45 L 65,46 L 63,44 L 61,44 L 61,46 L 60,47 L 59,46 L 60,47 L 59,48 L 60,49 L 60,50 L 60,49 L 59,48 L 61,46 L 62,47 L 63,46 L 64,47 L 64,48 L 62,50 L 63,51 L 63,52 L 62,53 L 62,56 L 64,58 L 64,59 L 65,60 L 65,61 L 66,62 L 66,63 L 65,64 L 64,63 L 63,64 L 64,64 L 65,65 L 65,66 L 64,67 L 63,67 L 60,64 L 60,63 L 62,61 L 63,61 L 62,60 L 62,59 L 61,58 L 60,59 L 59,58 L 59,55 L 60,54 L 59,53 L 58,53 L 56,55 L 55,54 L 54,54 L 54,55 L 55,55 L 57,57 L 56,58 L 56,59 L 54,61 L 54,62 L 55,63 L 57,63 L 58,64 L 58,65 L 57,66 L 56,65 L 55,65 L 54,66 L 53,66 L 54,67 L 56,67 L 57,68 L 56,69 L 57,70 L 56,71 L 56,72 L 55,73 L 54,73 L 53,72 L 54,71 L 52,73 L 51,73 L 50,72 L 51,71 L 50,70 L 52,68 L 51,68 L 50,67 L 51,66 L 51,65 L 49,65 L 48,64 L 48,63 L 47,62 L 47,60 L 48,59 L 49,59 L 50,58 L 51,58 L 52,59 L 52,60 L 52,59 L 50,57 L 51,56 L 49,58 L 48,57 L 46,59 L 45,59 L 44,60 L 43,59 L 43,60 L 42,61 L 41,61 L 41,62 L 40,63 L 38,61 L 39,60 L 37,60 L 36,61 L 35,60 L 33,62 L 31,60 L 32,59 L 33,59 L 32,58 L 33,57 L 34,57 L 35,58 L 35,57 L 36,56 L 37,56 L 38,55 L 42,55 L 43,56 L 42,57 L 43,57 L 43,56 L 42,55 L 43,54 L 44,54 L 45,55 L 45,56 L 45,54 L 44,54 L 43,53 L 43,54 L 42,55 L 40,53 L 41,54 L 40,55 L 38,55 L 37,54 L 35,54 L 33,56 L 32,55 L 31,55 L 33,57 L 32,58 L 30,58 L 29,57 L 30,58 L 29,59 L 30,59 L 31,60 L 31,63 L 30,64 L 30,65 L 31,65 L 32,66 L 33,65 L 34,65 L 33,65 L 32,64 L 33,63 L 36,63 L 36,61 L 37,60 L 39,62 L 38,63 L 39,63 L 41,65 L 41,68 L 40,69 L 39,68 L 37,68 L 36,69 L 35,68 L 35,67 L 34,67 L 36,69 L 36,71 L 35,72 L 35,73 L 36,73 L 37,74 L 38,74 L 39,75 L 39,76 L 41,78 L 40,79 L 38,79 L 37,78 L 36,79 L 34,79 L 33,80 L 32,80 L 31,81 L 32,80 L 33,80 L 34,81 L 35,81 L 34,81 L 33,80 L 34,79 L 37,79 L 39,81 L 39,83 L 38,84 L 38,85 L 37,86 L 36,86 L 35,85 L 36,84 L 35,85 L 33,83 L 30,83 L 29,84 L 28,84 L 27,85 L 26,85 L 25,84 L 26,83 L 25,82 L 26,81 L 27,81 L 28,80 L 28,79 L 29,78 L 28,77 L 29,76 L 28,75 L 30,73 L 31,74 L 31,75 L 31,73 L 33,71 L 31,73 L 30,73 L 28,75 L 27,74 L 27,73 L 25,73 L 24,72 L 25,71 L 27,71 L 25,71 L 24,72 L 25,73 L 26,73 L 27,74 L 25,76 L 26,76 L 27,77 L 26,78 L 21,78 L 20,77 L 20,76 L 20,78 L 19,79 L 18,78 L 17,78 L 18,78 L 19,79 L 17,81 L 17,82 L 18,81 L 19,81 L 18,80 L 19,79 L 20,79 L 21,80 L 20,79 L 21,78 L 23,78 L 26,81 L 25,82 L 24,82 L 25,82 L 26,83 L 24,85 L 23,85 L 22,84 L 21,85 L 20,85 L 21,85 L 22,86 L 22,87 L 23,87 L 24,88 L 20,92 L 19,91 L 19,90 L 18,89 L 17,89 L 16,90 L 15,89 L 13,89 L 15,89 L 16,90 L 15,91 L 13,91 L 12,92 L 11,91 L 11,90 L 10,90 L 9,91 L 7,89 L 7,88 L 8,87 L 7,86 L 7,85 L 8,84 L 8,83 L 9,82 L 8,83 L 7,83 L 8,84 L 7,85 L 6,85 L 5,84 L 4,85 L 5,86 L 5,87 L 6,86 L 7,86 L 8,87 L 7,88 L 7,90 L 4,93 L 3,92 L 4,93 L 4,94 L 3,95 L 1,93 L 1,91 L 0,90 L 2,88 L 3,89 L 3,90 L 3,89 L 2,88 L 3,87 L 0,90 L 1,91 L 1,92 L 0,93 L 1,93 L 2,94 L 2,95 L 3,96 L 3,98 L 2,99 L 0,97 L 0,95 L 0,97 L 1,98 L 1,99 L 0,100 L 1,101 L 1,102 L 0,103 L 0,107 L 1,108 L 0,109 L 0,117 L 1,118 L 0,119 L 0,122 L 1,123 L 0,124 L 0,125 L 1,126 L 0,127 L 0,981 L 1,982 L 0,983 L 0,985 L 1,984 L 2,985 L 4,985 L 6,987 L 5,988 L 4,988 L 3,987 L 1,987 L 1,990 L 0,991 L 0,992 L 1,993 L 0,994 L 0,995 L 1,996 L 1,998 L 0,999 L 0,1001 L 2,1003 L 1,1004 L 0,1004 L 0,1005 L 1,1005 L 2,1006 L 2,1007 L 2,1006 L 3,1005 L 5,1007 L 3,1009 L 4,1010 L 3,1011 L 3,1012 L 2,1013 L 1,1012 L 1,1009 L 0,1008 L 0,1007 L 0,1008 L 1,1009 L 0,1010 L 0,1011 L 1,1012 L 0,1013 L 0,1018 L 1,1019 L 0,1020 L 0,1021 L 1,1022 L 1,1023 L 2,1022 L 3,1023 L 4,1022 L 3,1021 L 4,1020 L 3,1019 L 1,1019 L 0,1018 L 0,1017 L 1,1016 L 2,1016 L 3,1015 L 5,1015 L 3,1013 L 4,1012 L 5,1012 L 6,1013 L 7,1012 L 8,1013 L 8,1016 L 7,1017 L 8,1018 L 7,1019 L 6,1019 L 5,1018 L 6,1019 L 6,1020 L 7,1021 L 6,1020 L 7,1019 L 8,1019 L 10,1021 L 10,1022 L 9,1023 L 7,1023 L 9,1023 L 11,1021 L 12,1022 L 12,1023 L 14,1023 L 13,1022 L 14,1021 L 15,1021 L 16,1022 L 17,1022 L 18,1023 L 19,1022 L 20,1022 L 21,1023 L 21,1022 L 22,1021 L 22,1020 L 23,1019 L 24,1020 L 24,1021 L 25,1020 L 26,1020 L 26,1019 L 25,1018 L 27,1016 L 28,1017 L 29,1017 L 30,1018 L 28,1020 L 30,1018 L 31,1019 L 31,1021 L 32,1021 L 33,1022 L 32,1023 L 30,1023 L 34,1023 L 34,1020 L 36,1018 L 37,1019 L 37,1020 L 36,1021 L 36,1022 L 37,1022 L 38,1023 L 38,1022 L 37,1021 L 38,1020 L 39,1020 L 41,1022 L 41,1023 L 42,1023 L 43,1022 L 44,1022 L 44,1020 L 43,1019 L 44,1018 L 45,1018 L 47,1020 L 46,1021 L 47,1021 L 48,1022 L 48,1023 L 53,1023 L 52,1022 L 53,1021 L 54,1021 L 55,1022 L 56,1021 L 57,1022 L 57,1023 L 62,1023 L 63,1022 L 64,1023 L 68,1023 L 69,1022 L 70,1022 L 71,1023 L 74,1023 L 75,1022 L 76,1023 L 77,1022 L 78,1023 L 97,1023 L 98,1022 L 99,1023 L 102,1023 L 103,1022 L 104,1023 L 109,1023 L 110,1022 L 111,1023 L 130,1023 L 131,1022 L 132,1023 L 844,1023 L 845,1022 L 846,1023 L 869,1023 L 870,1022 L 871,1023 L 886,1023 L 887,1022 L 888,1023 L 898,1023 L 898,1022 L 896,1022 L 895,1021 L 897,1019 L 898,1020 L 899,1020 L 900,1019 L 901,1020 L 901,1021 L 900,1022 L 901,1022 L 902,1023 L 903,1023 L 904,1022 L 905,1023 L 908,1023 L 909,1022 L 910,1023 L 910,1022 L 911,1021 L 913,1021 L 914,1022 L 915,1022 L 916,1023 L 917,1022 L 920,1022 L 919,1021 L 921,1019 L 922,1020 L 922,1021 L 923,1020 L 924,1021 L 924,1023 L 925,1022 L 926,1023 L 926,1020 L 924,1018 L 924,1017 L 926,1015 L 927,1016 L 929,1016 L 930,1015 L 930,1013 L 931,1012 L 932,1013 L 933,1012 L 932,1013 L 931,1012 L 931,1011 L 930,1011 L 931,1012 L 930,1013 L 929,1013 L 928,1012 L 927,1013 L 926,1013 L 925,1012 L 925,1011 L 927,1009 L 931,1009 L 931,1007 L 932,1006 L 933,1006 L 934,1007 L 933,1008 L 933,1010 L 936,1010 L 937,1009 L 939,1009 L 940,1010 L 941,1010 L 942,1011 L 941,1012 L 941,1013 L 940,1014 L 939,1014 L 941,1014 L 943,1016 L 943,1018 L 945,1016 L 947,1018 L 944,1015 L 942,1015 L 941,1014 L 941,1013 L 943,1011 L 944,1012 L 944,1013 L 944,1012 L 943,1011 L 942,1011 L 940,1009 L 942,1007 L 943,1008 L 943,1009 L 944,1008 L 945,1009 L 945,1010 L 946,1009 L 947,1010 L 948,1009 L 947,1010 L 946,1009 L 945,1009 L 944,1008 L 943,1008 L 942,1007 L 940,1009 L 938,1007 L 938,1005 L 939,1004 L 940,1005 L 943,1005 L 942,1004 L 943,1003 L 944,1003 L 945,1004 L 946,1004 L 948,1006 L 948,1007 L 951,1007 L 952,1008 L 951,1009 L 953,1011 L 954,1011 L 955,1012 L 955,1014 L 956,1013 L 955,1012 L 955,1011 L 953,1011 L 952,1010 L 954,1008 L 955,1009 L 955,1008 L 954,1007 L 954,1008 L 953,1009 L 952,1008 L 952,1007 L 949,1007 L 947,1005 L 949,1003 L 949,1002 L 949,1003 L 947,1005 L 946,1004 L 945,1004 L 944,1003 L 945,1002 L 944,1003 L 941,1003 L 940,1002 L 941,1001 L 943,1001 L 944,1000 L 943,1000 L 942,999 L 941,999 L 940,998 L 940,996 L 941,995 L 942,996 L 942,997 L 944,997 L 945,998 L 945,997 L 943,995 L 944,994 L 945,994 L 946,995 L 945,994 L 945,993 L 944,992 L 944,991 L 945,990 L 947,992 L 947,993 L 948,993 L 949,994 L 950,994 L 951,995 L 951,993 L 952,992 L 953,993 L 952,992 L 953,991 L 953,990 L 954,989 L 956,991 L 955,992 L 955,995 L 955,992 L 956,991 L 957,992 L 958,992 L 959,993 L 959,994 L 960,993 L 961,993 L 963,995 L 964,994 L 965,995 L 966,994 L 967,994 L 966,994 L 965,995 L 963,993 L 964,992 L 965,992 L 966,991 L 965,992 L 964,991 L 964,990 L 963,989 L 964,988 L 965,988 L 966,987 L 968,987 L 969,988 L 969,990 L 968,991 L 969,992 L 969,990 L 970,989 L 971,989 L 972,990 L 971,991 L 971,993 L 969,995 L 970,996 L 970,997 L 972,997 L 971,997 L 970,996 L 971,995 L 970,994 L 972,992 L 974,994 L 973,995 L 974,995 L 975,996 L 975,993 L 977,991 L 979,991 L 978,991 L 976,989 L 977,988 L 978,988 L 979,989 L 980,988 L 982,990 L 984,988 L 985,989 L 985,991 L 985,989 L 984,988 L 980,988 L 979,987 L 978,987 L 977,986 L 977,984 L 978,983 L 979,983 L 980,982 L 981,983 L 981,984 L 982,984 L 983,985 L 984,984 L 985,985 L 985,982 L 986,981 L 988,983 L 988,981 L 987,980 L 988,979 L 989,979 L 990,980 L 990,981 L 991,981 L 990,980 L 991,979 L 992,979 L 993,980 L 993,981 L 994,982 L 993,983 L 990,983 L 991,983 L 992,984 L 991,985 L 991,987 L 990,988 L 989,987 L 989,985 L 989,987 L 991,989 L 990,990 L 991,989 L 992,989 L 992,988 L 993,987 L 992,988 L 991,987 L 991,985 L 992,984 L 993,985 L 995,985 L 993,985 L 992,984 L 994,982 L 995,983 L 996,983 L 996,981 L 996,982 L 995,983 L 994,982 L 994,981 L 993,980 L 993,979 L 994,978 L 995,978 L 996,977 L 995,976 L 997,974 L 998,975 L 998,976 L 999,977 L 998,978 L 999,979 L 998,980 L 998,982 L 999,982 L 1000,983 L 1000,985 L 998,987 L 997,986 L 998,987 L 996,989 L 995,988 L 996,989 L 996,990 L 997,989 L 998,990 L 999,989 L 998,990 L 997,989 L 997,988 L 1000,985 L 1001,985 L 1000,984 L 1001,983 L 1000,982 L 1000,981 L 999,982 L 998,981 L 998,980 L 999,979 L 999,978 L 1000,977 L 1001,977 L 1000,976 L 1000,975 L 1001,974 L 1003,976 L 1003,979 L 1002,980 L 1003,979 L 1004,980 L 1005,979 L 1007,979 L 1010,976 L 1011,977 L 1012,977 L 1014,979 L 1015,979 L 1015,978 L 1016,977 L 1017,978 L 1018,977 L 1019,978 L 1017,976 L 1015,976 L 1014,975 L 1015,976 L 1015,977 L 1014,978 L 1013,978 L 1012,977 L 1012,976 L 1011,977 L 1010,976 L 1009,976 L 1008,975 L 1010,973 L 1011,974 L 1012,974 L 1011,974 L 1010,973 L 1011,972 L 1012,972 L 1011,971 L 1010,971 L 1009,970 L 1010,969 L 1013,969 L 1014,970 L 1014,973 L 1014,972 L 1015,971 L 1017,973 L 1017,974 L 1018,974 L 1019,973 L 1020,973 L 1021,974 L 1022,973 L 1021,972 L 1020,973 L 1019,973 L 1018,974 L 1016,972 L 1017,971 L 1015,969 L 1017,967 L 1017,966 L 1018,965 L 1018,964 L 1019,963 L 1021,965 L 1023,965 L 1021,963 L 1023,961 L 1022,960 L 1023,959 L 1023,958 L 1022,957 L 1023,956 L 1023,952 L 1022,951 L 1023,950 L 1023,949 L 1022,948 L 1023,947 L 1023,941 L 1022,940 L 1023,939 L 1023,102 L 1022,101 L 1022,100 L 1023,99 L 1023,97 L 1022,97 L 1021,96 L 1021,95 L 1023,93 L 1023,91 L 1022,90 L 1023,89 L 1021,91 L 1020,91 L 1019,90 L 1019,89 L 1020,88 L 1021,88 L 1022,87 L 1021,86 L 1022,85 L 1023,85 L 1023,84 L 1022,85 L 1021,84 L 1021,83 L 1021,84 L 1020,85 L 1019,84 L 1018,85 L 1017,84 L 1017,83 L 1015,81 L 1014,82 L 1014,83 L 1015,83 L 1017,85 L 1017,86 L 1016,87 L 1015,87 L 1014,86 L 1014,85 L 1013,85 L 1012,86 L 1011,85 L 1011,83 L 1010,82 L 1011,81 L 1011,80 L 1012,79 L 1017,79 L 1018,78 L 1019,78 L 1020,79 L 1019,78 L 1018,78 L 1016,76 L 1017,75 L 1018,75 L 1017,75 L 1016,76 L 1014,74 L 1014,73 L 1015,72 L 1016,73 L 1016,72 L 1015,72 L 1014,71 L 1014,70 L 1014,71 L 1015,72 L 1013,74 L 1014,74 L 1015,75 L 1015,76 L 1014,77 L 1013,77 L 1010,74 L 1012,72 L 1011,71 L 1012,70 L 1011,69 L 1013,67 L 1014,67 L 1016,69 L 1016,70 L 1017,70 L 1016,69 L 1018,67 L 1019,67 L 1018,67 L 1017,66 L 1018,65 L 1019,65 L 1018,64 L 1019,63 L 1020,63 L 1021,62 L 1022,63 L 1022,64 L 1023,65 L 1023,66 L 1022,67 L 1021,67 L 1021,68 L 1023,66 L 1023,65 L 1022,64 L 1022,63 L 1023,62 L 1022,63 L 1020,61 L 1020,60 L 1022,58 L 1023,59 L 1022,58 L 1020,60 L 1019,60 L 1018,59 L 1018,58 L 1019,57 L 1018,56 L 1019,55 L 1020,55 L 1020,53 L 1021,52 L 1022,53 L 1022,52 L 1023,51 L 1022,52 L 1021,52 L 1020,53 L 1020,54 L 1019,55 L 1018,55 L 1017,54 L 1018,53 L 1017,52 L 1017,50 L 1017,51 L 1015,53 L 1014,53 L 1013,54 L 1012,53 L 1012,54 L 1011,55 L 1010,54 L 1008,54 L 1007,53 L 1006,53 L 1005,52 L 1005,54 L 1004,55 L 1003,54 L 1002,55 L 1000,53 L 1001,52 L 1000,53 L 999,53 L 998,52 L 1001,49 L 1003,49 L 1004,50 L 1003,51 L 1003,52 L 1003,51 L 1004,50 L 1004,49 L 1005,48 L 1006,49 L 1006,50 L 1007,51 L 1008,50 L 1008,48 L 1009,47 L 1011,47 L 1013,45 L 1014,46 L 1015,46 L 1015,45 L 1016,44 L 1018,46 L 1018,47 L 1017,48 L 1018,48 L 1019,49 L 1019,51 L 1019,49 L 1018,48 L 1019,47 L 1019,45 L 1018,46 L 1017,45 L 1017,44 L 1016,44 L 1015,43 L 1015,41 L 1016,40 L 1014,42 L 1013,41 L 1012,41 L 1011,40 L 1010,41 L 1009,40 L 1007,40 L 1007,41 L 1006,42 L 1008,44 L 1008,45 L 1007,46 L 1006,45 L 1005,46 L 1004,46 L 1003,45 L 1004,44 L 1003,43 L 1004,42 L 1003,41 L 1001,41 L 1000,40 L 1000,39 L 999,40 L 999,41 L 1000,42 L 999,43 L 998,43 L 998,45 L 997,46 L 998,47 L 997,48 L 996,48 L 995,47 L 995,42 L 996,41 L 996,39 L 996,40 L 994,42 L 993,41 L 992,41 L 991,40 L 991,41 L 990,42 L 989,41 L 988,41 L 987,42 L 986,42 L 985,41 L 985,40 L 986,39 L 985,40 L 984,39 L 985,40 L 985,41 L 984,42 L 982,40 L 982,39 L 982,40 L 981,41 L 982,42 L 980,44 L 980,46 L 982,48 L 982,49 L 981,50 L 980,50 L 979,49 L 979,48 L 978,47 L 978,45 L 976,43 L 978,41 L 979,42 L 979,41 L 978,41 L 976,39 L 976,38 L 977,37 L 978,38 L 979,38 L 980,39 L 980,38 L 979,38 L 978,37 L 979,36 L 981,36 L 982,37 L 984,37 L 984,36 L 985,35 L 984,36 L 983,36 L 982,37 L 980,35 L 981,34 L 983,34 L 984,33 L 985,33 L 986,32 L 987,33 L 987,34 L 988,35 L 987,34 L 987,33 L 988,32 L 989,32 L 991,30 L 990,29 L 991,28 L 992,28 L 993,29 L 993,32 L 994,31 L 995,32 L 995,33 L 995,32 L 994,31 L 995,30 L 996,30 L 995,30 L 994,29 L 993,29 L 992,28 L 991,28 L 989,30 L 987,28 L 987,26 L 988,25 L 987,24 L 987,23 L 988,22 L 989,22 L 990,21 L 991,22 L 991,26 L 992,26 L 992,24 L 991,23 L 991,22 L 990,21 L 989,21 L 987,19 L 987,20 L 986,21 L 987,21 L 988,22 L 987,23 L 987,24 L 986,25 L 987,26 L 987,28 L 986,29 L 985,28 L 984,29 L 983,29 L 982,28 L 982,26 L 983,25 L 982,26 L 981,26 L 980,25 L 981,24 L 980,25 L 978,23 L 978,22 L 979,21 L 980,22 L 981,21 L 983,23 L 984,22 L 983,23 L 982,22 L 982,19 L 983,18 L 984,19 L 983,18 L 981,18 L 980,19 L 979,19 L 979,21 L 977,23 L 975,21 L 974,22 L 974,23 L 973,24 L 973,25 L 972,26 L 971,25 L 971,24 L 970,25 L 969,25 L 968,24 L 969,25 L 968,26 L 967,26 L 966,27 L 965,26 L 965,24 L 966,23 L 964,23 L 963,22 L 963,21 L 964,20 L 962,20 L 961,19 L 961,20 L 962,21 L 959,24 L 956,24 L 957,25 L 958,24 L 959,25 L 959,24 L 960,23 L 961,24 L 962,24 L 963,25 L 963,26 L 962,27 L 957,27 L 956,28 L 955,28 L 954,27 L 955,26 L 954,25 L 953,25 L 952,24 L 953,23 L 954,23 L 955,22 L 957,22 L 959,20 L 959,19 L 958,18 L 960,16 L 961,17 L 962,17 L 963,18 L 964,17 L 965,17 L 967,19 L 966,20 L 966,21 L 966,20 L 968,18 L 967,17 L 968,16 L 969,16 L 970,15 L 971,15 L 972,16 L 972,17 L 973,18 L 973,17 L 975,15 L 976,16 L 977,15 L 979,15 L 980,14 L 981,14 L 983,16 L 984,15 L 986,15 L 985,14 L 987,12 L 988,13 L 988,15 L 989,16 L 990,16 L 990,15 L 992,13 L 993,14 L 993,17 L 995,17 L 994,17 L 993,16 L 994,15 L 995,15 L 996,14 L 997,15 L 997,16 L 997,15 L 998,14 L 995,14 L 994,13 L 995,12 L 994,13 L 993,12 L 993,11 L 993,12 L 992,13 L 991,12 L 990,13 L 989,12 L 988,13 L 987,12 L 987,11 L 986,11 L 985,10 L 987,8 L 988,8 L 989,9 L 989,10 L 989,9 L 990,8 L 991,9 L 991,10 L 991,9 L 992,8 L 993,8 L 991,8 L 990,7 L 991,6 L 990,6 L 990,8 L 989,9 L 987,7 L 988,6 L 987,7 L 986,6 L 986,5 L 987,4 L 986,5 L 985,5 L 983,3 L 982,3 L 982,4 L 984,4 L 987,7 L 987,8 L 986,9 L 985,8 L 983,8 L 982,7 L 981,8 L 979,8 L 979,9 L 980,9 L 982,7 L 983,8 L 985,8 L 986,9 L 985,10 L 985,11 L 986,11 L 987,12 L 986,13 L 984,13 L 985,14 L 984,15 L 982,15 L 981,14 L 982,13 L 981,13 L 979,11 L 978,12 L 977,11 L 975,11 L 974,10 L 976,8 L 977,8 L 976,7 L 976,6 L 977,5 L 978,6 L 977,5 L 977,4 L 977,5 L 976,6 L 976,8 L 975,9 L 974,9 L 972,7 L 973,8 L 972,9 L 971,9 L 970,8 L 967,8 L 968,8 L 969,9 L 968,10 L 966,10 L 965,11 L 964,10 L 964,9 L 963,9 L 962,10 L 960,8 L 958,8 L 957,7 L 958,6 L 959,6 L 958,5 L 958,4 L 959,3 L 958,2 L 959,1 L 960,1 L 961,0 L 962,1 L 965,1 L 965,0 L 964,1 L 963,0 L 962,1 L 961,0 L 959,0 L 958,1 L 958,2 L 956,4 L 955,3 L 953,3 L 952,2 L 952,1 L 953,0 L 952,1 L 951,1 L 950,0 L 949,0 L 948,1 L 947,1 L 946,0 L 944,2 L 943,1 L 943,0 L 942,1 L 939,1 L 938,0 L 939,1 L 938,2 L 937,2 L 936,1 L 936,0 L 934,0 L 933,1 L 932,0 L 931,0 L 930,1 L 929,0 L 928,0 L 927,1 L 926,0 L 927,1 L 926,2 L 926,4 L 929,4 L 930,5 L 928,7 L 927,6 L 925,6 L 924,5 L 924,4 L 923,3 L 923,2 L 924,1 L 922,1 L 921,0 L 919,0 L 918,1 L 917,0 L 912,0 L 911,1 L 910,0 L 904,0 L 903,1 L 902,0 L 683,0 L 682,1 L 681,0 L 680,0 L 679,1 L 678,0 L 673,0 L 672,1 L 671,0 L 656,0 L 655,1 L 654,0 L 651,0 L 650,1 L 649,0 L 203,0 L 202,1 L 201,0 L 195,0 L 194,1 L 193,0 L 187,0 L 186,1 L 185,0 L 184,0 L 183,1 L 182,0 L 179,0 L 178,1 L 177,0 L 176,0 L 175,1 L 174,0 L 168,0 L 167,1 L 166,0 L 165,0 L 164,1 L 163,1 L 162,0 L 159,0 L 160,1 L 158,3 L 159,3 L 160,4 L 161,4 L 162,5 L 160,7 L 160,8 L 161,7 L 163,7 L 164,8 L 163,9 L 162,9 L 161,10 L 160,10 L 159,11 L 158,10 L 158,9 L 158,11 L 156,13 L 154,13 L 153,12 L 154,11 L 155,11 L 155,10 L 156,9 L 155,8 L 154,9 L 153,9 L 152,8 L 154,6 L 156,6 L 157,7 L 158,6 L 158,5 L 157,6 L 156,5 L 156,4 L 155,3 L 156,4 L 156,5 L 155,6 L 154,5 L 153,6 L 150,3 L 152,1 L 151,0 L 149,0 L 148,1 L 147,0 L 146,1 L 145,0 Z" fill="black"/>
  <path d="M 141,0 L 141,1 Z" fill="black"/>
  <path d="M 128,0 L 127,1 L 127,2 L 129,4 L 129,5 L 129,3 L 128,3 L 127,2 L 128,1 L 130,1 L 131,2 L 131,4 L 132,5 L 132,6 L 134,6 L 133,6 L 132,5 L 132,4 L 133,3 L 134,4 L 135,3 L 132,3 L 131,2 L 133,0 L 136,0 L 137,1 L 137,3 L 140,3 L 139,2 L 139,1 L 137,1 L 136,0 L 133,0 L 131,2 L 130,1 L 129,1 Z" fill="black"/>
  <path d="M 123,0 L 122,1 Z" fill="black"/>
  <path d="M 111,0 L 111,1 L 112,0 L 113,1 L 112,0 Z" fill="black"/>
  <path d="M 109,0 L 109,1 Z" fill="black"/>
  <path d="M 104,0 L 107,0 Z" fill="black"/>
  <path d="M 96,0 L 95,1 L 96,1 Z" fill="black"/>
  <path d="M 93,0 Z" fill="black"/>
  <path d="M 69,0 L 71,2 L 70,3 L 71,2 L 72,2 L 71,1 L 72,0 L 71,1 L 70,1 Z" fill="black"/>
  <path d="M 64,0 L 65,1 L 66,0 L 68,2 L 66,0 Z" fill="black"/>
  <path d="M 59,0 L 60,0 Z" fill="black"/>
  <path d="M 49,0 L 50,1 L 49,2 L 49,3 L 49,2 L 50,1 L 51,1 L 50,1 Z" fill="black"/>
  <path d="M 43,0 Z" fill="black"/>
  <path d="M 26,0 Z" fill="black"/>
  <path d="M 21,0 L 20,1 L 19,1 L 20,1 L 21,2 L 20,1 Z" fill="black"/>
  <path d="M 16,0 L 17,1 Z" fill="black"/>
  <path d="M 11,0 Z" fill="black"/>
  <path d="M 0,0 Z" fill="black"/>
</svg>